<?xml version="1.0" encoding="UTF-8"?>
<!DOCTYPE svg PUBLIC "-//W3C//DTD SVG 1.0//EN" "http://www.w3.org/TR/2001/REC-SVG-20010904/DTD/svg10.dtd">
<!-- Creator: CorelDRAW 2017 -->
<svg xmlns="http://www.w3.org/2000/svg" xml:space="preserve" width="0.2in" height="0.15in" version="1.0" style="shape-rendering:geometricPrecision; text-rendering:geometricPrecision; image-rendering:optimizeQuality; fill-rule:evenodd; clip-rule:evenodd"
viewBox="0 0 200 150"
 xmlns:xlink="http://www.w3.org/1999/xlink">
 <defs>
  <style type="text/css">
   <![CDATA[
    .str0 {stroke:#E0B4BE;stroke-width:6.94;stroke-miterlimit:2.61313}
    .fil0 {fill:#2D2C2D;fill-rule:nonzero}
    .fil1 {fill:#E0B4BE;fill-rule:nonzero}
   ]]>
  </style>
 </defs>
 <g id="Layer_x0020_1">
  <metadata id="CorelCorpID_0Corel-Layer"/>
  <path class="fil0" d="M199.27 75.07c-3.72,0.21 -6.52,1.03 -8.41,2.47 -1.86,1.42 -3.18,3.56 -3.91,6.42 -0.73,2.87 -1.11,7.57 -1.11,14.13 0,9.52 -0.69,15.7 -2.05,18.57 -1.38,2.84 -3.64,5.2 -6.8,7.09 -3.18,1.88 -8.63,2.82 -16.39,2.82l-3.24 0 0 -14.68c5.14,0 8.51,-0.58 10.12,-1.74 1.61,-1.17 2.43,-3.55 2.43,-7.13 0,-11.71 0.75,-19.84 2.26,-24.44 1.52,-4.58 4.58,-8.2 9.2,-10.85 -5.02,-2.99 -8.2,-6.83 -9.53,-11.58 -1.32,-4.72 -1.99,-12.63 -1.99,-23.69 0,-3.85 -0.75,-6.27 -2.26,-7.32 -1.51,-1.05 -4.91,-1.57 -10.22,-1.57l0 -14.68 3.24 0c7.11,0 12.46,0.9 16.06,2.72 3.57,1.82 6.02,4.48 7.28,7.96 1.28,3.49 1.91,9.43 1.91,17.86 0,6.48 0.35,11.14 1.04,13.98 0.69,2.82 1.99,5 3.89,6.48 1.9,1.48 4.72,2.32 8.49,2.48l0 14.68z"/>
  <path class="fil1 str0" d="M102.34 41.44c6.53,-11.83 13.07,-17.75 26.13,-17.75 14.43,0 26.14,10.6 26.14,23.66 0,23.66 -26.14,47.33 -52.27,70.99 -26.14,-23.66 -52.27,-47.33 -52.27,-70.99 0,-13.06 11.71,-23.66 26.13,-23.66 13.07,0 19.6,5.92 26.14,17.75z"/>
  <path class="fil0" d="M5.41 75.06l0 -14.68c3.72,-0.17 6.52,-0.96 8.41,-2.4 1.88,-1.42 3.18,-3.56 3.91,-6.42 0.73,-2.86 1.11,-7.57 1.11,-14.13 0,-6.94 0.33,-11.96 1,-15.07 0.69,-3.09 1.96,-5.65 3.83,-7.61 1.88,-1.99 4.41,-3.45 7.57,-4.41 3.16,-0.96 7.44,-1.44 12.84,-1.44l3.24 0 0 14.68c-5.46,0 -8.91,0.54 -10.35,1.65 -1.42,1.11 -2.13,3.51 -2.13,7.24 0,11.39 -0.69,19.38 -2.09,23.98 -1.38,4.58 -4.52,8.34 -9.43,11.29 3.76,2.03 6.61,5.08 8.55,9.14 1.94,4.06 2.91,12.78 2.91,26.16 0,3.18 0.46,5.22 1.4,6.17 0.94,0.94 1.94,1.63 2.97,2.05 1.04,0.44 3.76,0.65 8.17,0.65l0 14.68 -3.24 0c-8.26,0 -13.84,-1 -16.79,-3.03 -2.93,-2.03 -5.08,-4.35 -6.42,-7 -1.36,-2.65 -2.03,-8.8 -2.03,-18.44 0,-6.52 -0.35,-11.19 -1.04,-14.01 -0.69,-2.82 -1.99,-4.98 -3.89,-6.46 -1.9,-1.48 -4.72,-2.34 -8.49,-2.55z"/>
 </g>
</svg>
