<?xml version="1.0" encoding="UTF-8"?>
<!DOCTYPE svg PUBLIC "-//W3C//DTD SVG 1.0//EN" "http://www.w3.org/TR/2001/REC-SVG-20010904/DTD/svg10.dtd">
<!-- Creator: CorelDRAW 2017 -->
<svg xmlns="http://www.w3.org/2000/svg" xml:space="preserve" width="5.9in" height="1in" version="1.0" style="shape-rendering:geometricPrecision; text-rendering:geometricPrecision; image-rendering:optimizeQuality; fill-rule:evenodd; clip-rule:evenodd"
viewBox="0 0 5900 1000"
 xmlns:xlink="http://www.w3.org/1999/xlink">
 <defs>
  <style type="text/css">
   <![CDATA[
    .str0 {stroke:#E0B4BE;stroke-width:6.94;stroke-miterlimit:2.61313}
    .fil0 {fill:#2D2C2D;fill-rule:nonzero}
    .fil1 {fill:#E0B4BE;fill-rule:nonzero}
   ]]>
  </style>
 </defs>
 <g id="Layer_x0020_1">
  <metadata id="CorelCorpID_0Corel-Layer"/>
  <path class="fil0" d="M1643.57 566.15c-31.31,1.76 -54.89,8.62 -70.72,20.76 -15.66,11.96 -26.74,29.91 -32.9,54.01 -6.16,24.1 -9.32,63.69 -9.32,118.93 0,80.05 -5.81,132.12 -17.24,156.22 -11.61,23.93 -30.61,43.81 -57.18,59.64 -26.74,15.83 -72.66,23.75 -137.93,23.75l-27.27 0 0 -123.5c43.28,0 71.6,-4.93 85.15,-14.6 13.55,-9.85 20.41,-29.91 20.41,-59.99 0,-98.52 6.33,-166.96 19,-205.66 12.84,-38.53 38.53,-68.96 77.41,-91.31 -42.22,-25.16 -68.96,-57.53 -80.22,-97.46 -11.08,-39.76 -16.71,-106.26 -16.71,-199.33 0,-32.37 -6.33,-52.78 -19,-61.57 -12.67,-8.8 -41.34,-13.19 -86.03,-13.19l0 -123.5 27.27 0c59.81,0 104.85,7.57 135.11,22.87 30.08,15.31 50.67,37.65 61.22,67.03 10.73,29.38 16.01,79.34 16.01,150.24 0,54.54 2.99,93.77 8.8,117.7 5.81,23.75 16.71,42.04 32.72,54.54 16.01,12.49 39.76,19.53 71.43,20.94l0 123.5z"/>
  <path class="fil1 str0" d="M828.02 283.19c54.98,-99.55 109.95,-149.32 219.91,-149.32 121.39,0 219.9,89.19 219.9,199.09 0,199.1 -219.9,398.2 -439.81,597.29 -219.9,-199.09 -439.8,-398.19 -439.8,-597.29 0,-109.9 98.52,-199.09 219.9,-199.09 109.95,0 164.93,49.77 219.9,149.32z"/>
  <path class="fil0" d="M1693.53 649.67l50.44 0 0 -314.78 -50.44 0 0 -90.11 240.56 0.67c22.33,0 42.78,3.89 61.33,11.89 18.56,7.89 34.56,18.56 48.11,32.22 13.44,13.56 23.89,29.33 31.33,47.44 7.56,18.11 11.22,37.44 11.22,57.78 0,23.89 -4.11,43.67 -12.44,59.22 -8.44,15.67 -20.33,28.22 -35.67,37.78 16.22,10.44 29.11,23.33 38.56,38.56 9.44,15.33 14.11,34 14.11,55.89 0,22.33 -3.78,42.89 -11.56,61.56 -7.67,18.67 -18.22,34.78 -31.56,48.33 -13.33,13.56 -29.11,24.11 -47.33,31.56 -18.22,7.44 -37.89,11.22 -58.89,11.22l-247.78 0 0 -89.22zm158.56 -114.89l0 114.89 82 0c6.33,0 12.22,-1.56 17.78,-4.89 5.56,-3.22 10.33,-7.56 14.33,-12.78 4,-5.33 7.22,-11.56 9.56,-18.56 2.44,-7.11 3.56,-14.44 3.56,-22 0,-8 -1.11,-15.44 -3.56,-22.33 -2.33,-6.78 -5.67,-12.78 -9.78,-17.89 -4.11,-5.11 -8.89,-9.11 -14.44,-12 -5.56,-3 -11.33,-4.44 -17.44,-4.44l-82 0zm0 -199.89l0 110.67 77.44 0c6.11,0 11.89,-1.44 17.22,-4.56 5.44,-3 10.22,-7.11 14.22,-12.22 4,-5 7.22,-10.78 9.56,-17.22 2.44,-6.33 3.56,-13.11 3.56,-20 0,-6.78 -1.11,-13.44 -3.56,-20.22 -2.33,-6.67 -5.56,-12.78 -9.56,-18.22 -4,-5.44 -8.78,-9.78 -14.22,-13.11 -5.33,-3.44 -11.11,-5.11 -17.22,-5.11l-77.44 0z"/>
  <path id="1" class="fil0" d="M2343.31 401.67l159.56 0 0 248 40.67 0 0 89.22 -142.89 0 0 -28.67c-11.56,10.44 -25,18.44 -40.33,24.11 -15.44,5.67 -33.22,8.44 -53.44,8.44 -18.67,0 -36.22,-2.89 -52.78,-8.78 -16.44,-5.89 -30.78,-14.67 -43.11,-26.56 -12.22,-11.78 -21.89,-26.56 -28.89,-44.44 -7.11,-17.78 -10.67,-38.67 -10.67,-62.78l0 -109.33 -43.89 0 0 -89.22 149.11 0 0 198.56c0,22.56 5.67,39.44 17.22,50.56 11.44,11.22 26.44,16.78 44.89,16.78 13,0 24.89,-4 35.44,-12 10.67,-8 18.44,-18.89 23.11,-32.56l0 -132.11 -54 0 0 -89.22z"/>
  <path id="2" class="fil0" d="M2592.97 401.67l151.44 0 0 248 46.89 0 0 89.22 -198.33 0 0 -89.22 50.78 0 0 -158.78 -50.78 0 0 -89.22zm45.67 -108.78c0,-8 1.44,-15.56 4.33,-22.56 2.89,-7.11 7,-13.22 12.22,-18.44 5.22,-5.22 11.33,-9.33 18.33,-12.33 7.11,-3 14.78,-4.56 23,-4.56 7.78,0 15.22,1.56 22.11,4.56 7,3 13,7.11 18.22,12.33 5.22,5.22 9.33,11.33 12.44,18.44 3,7 4.56,14.56 4.56,22.56 0,8.11 -1.56,15.56 -4.56,22.67 -3.11,7 -7.22,13.22 -12.44,18.33 -5.22,5.22 -11.22,9.33 -18.22,12.44 -6.89,3 -14.33,4.56 -22.11,4.56 -8.22,0 -15.89,-1.56 -23,-4.56 -7,-3.11 -13.11,-7.22 -18.33,-12.44 -5.22,-5.11 -9.33,-11.33 -12.22,-18.33 -2.89,-7.11 -4.33,-14.56 -4.33,-22.67z"/>
  <path id="3" class="fil0" d="M2843.3 232.33l152 0 0 417.33 52.11 0 0 89.22 -204.11 0 0 -89.22 52.11 0 0 -328.11 -52.11 0 0 -89.22z"/>
  <path id="4" class="fil0" d="M3303.53 232.33l147.44 0 0 417.33 65.78 0 0 89.22 -166 0 0 -13c-11.67,6 -23.67,10.78 -36,14.33 -12.22,3.44 -24.67,5.22 -37.22,5.22 -25.78,0 -49.56,-4.67 -71.11,-13.89 -21.67,-9.22 -40.22,-21.89 -55.67,-37.89 -15.56,-16.11 -27.67,-34.89 -36.33,-56.56 -8.67,-21.56 -13,-44.67 -13,-69.44 0,-24.78 4.33,-47.78 12.89,-69.22 8.56,-21.33 20.44,-39.89 35.78,-55.78 15.33,-15.89 33.67,-28.33 55,-37.44 21.33,-9.11 44.89,-13.67 70.44,-13.67 14.11,0 27.33,1.33 39.78,4.11 12.33,2.67 24.22,6.56 35.44,11.56l0 -85.67 -47.22 0 0 -89.22zm-20.44 423.22c14.33,-0.44 27.22,-4.11 38.89,-11.11 11.56,-6.89 21.22,-16 28.78,-27.33l0 -99.22c-7.56,-11.56 -17.44,-20.44 -29.44,-26.89 -12,-6.44 -24.78,-9.44 -38.22,-9.33 -11.33,-0.11 -21.89,1.78 -31.78,5.89 -9.89,4.11 -18.56,10 -26,17.56 -7.56,7.67 -13.44,16.78 -17.78,27.44 -4.33,10.56 -6.56,22.67 -6.56,36.11 0,13.22 2.22,25.22 6.56,35.89 4.33,10.78 10.22,19.89 17.78,27.44 7.44,7.44 16.11,13.11 26,17 9.89,4 20.44,6.11 31.78,6.56z"/>
  <path class="fil0" d="M3625.48 649.67l51.11 0 0 -318 -59.89 0 0 63.78 -106.11 0 0 -150 448.89 0 0 150 -106.78 0 0 -63.78 -68.11 0 0 318 52.11 0 0 89.22 -211.22 0 0 -89.22z"/>
  <path id="1" class="fil0" d="M3927.82 569c0,-24.56 4.44,-47.56 13.33,-69 8.89,-21.56 21.33,-40.33 37.11,-56.33 15.89,-16.11 34.78,-28.78 56.67,-38.11 21.89,-9.33 46,-14 72.22,-14 26.33,0 50.44,4.67 72.44,14 22,9.33 41,22 56.78,38.11 15.89,16 28.22,34.78 37,56.33 8.78,21.44 13.22,44.44 13.22,69 0,24.44 -4.33,47.56 -12.89,69.11 -8.56,21.67 -20.78,40.44 -36.44,56.67 -15.78,16.22 -34.67,28.89 -56.67,38.22 -22,9.33 -46.56,14 -73.44,14 -27.11,0 -51.67,-4.67 -73.67,-14 -22.11,-9.33 -40.89,-22 -56.56,-38 -15.56,-16.11 -27.67,-34.89 -36.22,-56.56 -8.56,-21.56 -12.89,-44.78 -12.89,-69.44zm97.33 0c0,12.78 2.11,24.56 6.56,35.33 4.33,10.67 10.22,20 17.67,27.78 7.56,7.78 16.22,13.89 26.11,18.22 9.78,4.33 20.44,6.56 31.67,6.56 11.56,0 22.22,-2.11 32.11,-6.33 9.89,-4.33 18.44,-10.33 25.67,-18.11 7.33,-7.78 13,-17.11 17.11,-27.89 4.11,-10.67 6.22,-22.56 6.22,-35.56 0,-13.44 -2.11,-25.67 -6.22,-36.44 -4.11,-10.89 -9.78,-20.11 -17.11,-27.67 -7.22,-7.67 -15.78,-13.44 -25.67,-17.44 -9.89,-4 -20.56,-5.89 -32.11,-5.78 -11.22,-0.11 -21.89,1.78 -31.67,5.78 -9.89,4 -18.56,9.78 -26.11,17.44 -7.44,7.56 -13.33,16.78 -17.67,27.67 -4.44,10.78 -6.56,23 -6.56,36.44z"/>
  <path class="fil0" d="M4691.48 738.89l0 -84.67c-13.44,23.67 -26.56,41 -39.44,52.11 -12.78,11.11 -27.22,20 -43.44,26.67 -16.11,6.78 -37.78,10 -64.89,9.78 -13.44,-0.22 -26.89,-1.78 -40.44,-4.67 -13.44,-3 -26.44,-7.11 -39,-12.44 -12.56,-5.22 -24.89,-11.67 -37,-19.22 -12,-7.44 -22.89,-16.11 -32.67,-25.78 -24.11,-24.33 -42.78,-52.56 -56.11,-84.56 -13.44,-32 -20.11,-66.89 -20.11,-104.67 0,-23.22 2.89,-45.67 8.56,-67.33 5.56,-21.67 13.56,-42 23.67,-60.89 10.22,-18.89 22.56,-36.11 37,-51.56 14.44,-15.56 30.44,-28.89 48.22,-39.89 17.67,-11.11 36.67,-19.67 57.11,-25.78 20.33,-6 41.78,-9.11 64.11,-9.11 25.56,0 47.78,3.44 66.67,10.33 18.89,6.78 39.22,19.56 60.89,38.22l73 0 0 110 -100.67 0c-10,-15.44 -19.33,-26.56 -28.11,-33.56 -8.78,-6.89 -18.33,-12.67 -28.67,-17.22 -10.33,-4.56 -24.67,-6.78 -43.11,-6.78 -18.22,0 -35.22,4.11 -50.78,12.33 -15.67,8.22 -29.11,19.33 -40.56,33.33 -11.33,14 -20.33,30.56 -26.89,49.56 -6.44,18.89 -9.67,38.44 -9.67,58.33 0,19.78 2.89,38.56 8.78,56.33 5.78,17.78 14.67,33.78 26.67,48 11.89,14.22 25.78,25.11 41.67,32.78 15.78,7.56 32.78,11.33 50.78,11.33 23,0 43.11,-6.67 60.22,-20.11 17.11,-13.44 29.44,-31.78 37.11,-55l-94.11 0 0 -89.22 228.56 0 0 263.33 -97.33 0z"/>
  <path id="1" class="fil0" d="M4855.48 401.67l151.44 0 0 248 46.89 0 0 89.22 -198.33 0 0 -89.22 50.78 0 0 -158.78 -50.78 0 0 -89.22zm45.67 -108.78c0,-8 1.44,-15.56 4.33,-22.56 2.89,-7.11 7,-13.22 12.22,-18.44 5.22,-5.22 11.33,-9.33 18.33,-12.33 7.11,-3 14.78,-4.56 23,-4.56 7.78,0 15.22,1.56 22.11,4.56 7,3 13,7.11 18.22,12.33 5.22,5.22 9.33,11.33 12.44,18.44 3,7 4.56,14.56 4.56,22.56 0,8.11 -1.56,15.56 -4.56,22.67 -3.11,7 -7.22,13.22 -12.44,18.33 -5.22,5.22 -11.22,9.33 -18.22,12.44 -6.89,3 -14.33,4.56 -22.11,4.56 -8.22,0 -15.89,-1.56 -23,-4.56 -7,-3.11 -13.11,-7.22 -18.33,-12.44 -5.22,-5.11 -9.33,-11.33 -12.22,-18.33 -2.89,-7.11 -4.33,-14.56 -4.33,-22.67z"/>
  <path id="2" class="fil0" d="M5099.93 401.67l176.11 0 0 89.22 -41 0 55 144.78 53.11 -144.78 -36.56 0 0 -89.22 176.11 0 0 89.22 -44.89 0 -100.56 249.33 -99.33 0 -100.56 -249.33 -37.44 0 0 -89.22z"/>
  <path id="3" class="fil0" d="M5609.37 591.44l1 10.11c2.44,9.78 6.44,18.33 12.22,25.67 5.78,7.44 12.56,13.56 20.33,18.56 7.89,5 16.56,8.78 26.11,11.22 9.56,2.56 19.11,3.78 28.89,3.78 9.78,0 19.11,-0.67 27.89,-1.78 8.78,-1.22 17.33,-2.89 25.56,-4.89 8.22,-2.11 16.22,-4.44 24.11,-7.22 7.78,-2.67 15.67,-5.56 23.67,-8.56l35.89 66.67c-12.44,7.67 -23.78,14.11 -34,19.44 -10.33,5.22 -20.67,9.67 -31.11,13.11 -10.44,3.56 -21.56,6 -33.22,7.67 -11.67,1.67 -25.33,2.44 -41,2.44 -29.33,0 -55.33,-4.78 -78.11,-14.44 -22.78,-9.67 -42,-22.78 -57.44,-39.22 -15.56,-16.56 -27.33,-35.89 -35.56,-58 -8.11,-22.11 -12.22,-45.56 -12.22,-70.33 0,-24.67 4.33,-47.89 12.89,-69.67 8.56,-21.67 20.67,-40.56 36.33,-56.78 15.56,-16.11 34.22,-28.89 56,-38.22 21.67,-9.33 45.78,-14 72.22,-14 26.44,0 50,4.44 70.44,13.22 20.56,8.78 37.89,20.89 52,36.44 14.11,15.44 24.89,33.78 32.56,54.67 7.56,20.89 11.67,43.44 12.33,67.56 0.67,5.44 1,10.78 1.11,16.11 0.11,5.33 0,10.78 -0.44,16.44l-248.44 0zm77.89 -123.11c-12.22,0 -22.56,1.56 -31.11,4.44 -8.56,2.89 -15.78,6.89 -21.67,12 -5.89,5.11 -10.56,11 -14,17.44 -3.44,6.56 -6.22,13.33 -8.11,20.56l140.89 0c-1.44,-7.44 -3.67,-14.33 -6.44,-20.89 -2.89,-6.44 -6.78,-12.22 -11.78,-17.22 -5,-5 -11.33,-9 -19,-11.89 -7.67,-2.89 -17.33,-4.44 -28.78,-4.44z"/>
  <path class="fil0" d="M12.46 566.15l0 -123.5c31.31,-1.41 54.89,-8.09 70.72,-20.23 15.83,-11.96 26.74,-29.91 32.9,-54.01 6.16,-24.1 9.32,-63.69 9.32,-118.93 0,-58.41 2.81,-100.63 8.44,-126.84 5.81,-26.04 16.54,-47.5 32.2,-64.04 15.83,-16.71 37.12,-29.03 63.69,-37.12 26.56,-8.09 62.63,-12.14 108.02,-12.14l27.27 0 0 123.5c-45.92,0 -74.94,4.57 -87.09,13.9 -11.96,9.33 -17.94,29.56 -17.94,60.87 0,95.88 -5.8,163.08 -17.59,201.79 -11.61,38.53 -38,70.2 -79.34,95 31.67,17.07 55.59,42.75 71.95,76.88 16.36,34.13 24.45,107.49 24.45,220.08 0,26.74 3.87,43.98 11.79,51.9 7.92,7.92 16.36,13.72 24.98,17.24 8.8,3.69 31.67,5.45 68.79,5.45l0 123.5 -27.27 0c-69.49,0 -116.46,-8.44 -141.27,-25.51 -24.63,-17.07 -42.75,-36.59 -54.01,-58.94 -11.44,-22.34 -17.07,-74.06 -17.07,-155.17 0,-54.89 -2.99,-94.12 -8.8,-117.87 -5.81,-23.75 -16.71,-41.87 -32.72,-54.36 -16.01,-12.49 -39.76,-19.7 -71.43,-21.46z"/>
 </g>
</svg>
