<?xml version="1.0" encoding="UTF-8"?>
<!DOCTYPE svg PUBLIC "-//W3C//DTD SVG 1.0//EN" "http://www.w3.org/TR/2001/REC-SVG-20010904/DTD/svg10.dtd">
<!-- Creator: CorelDRAW 2017 -->
<svg xmlns="http://www.w3.org/2000/svg" xml:space="preserve" width="7in" height="1.4in" version="1.0" style="shape-rendering:geometricPrecision; text-rendering:geometricPrecision; image-rendering:optimizeQuality; fill-rule:evenodd; clip-rule:evenodd"
viewBox="0 0 7000 1400"
 xmlns:xlink="http://www.w3.org/1999/xlink">
 <defs>
  <style type="text/css">
   <![CDATA[
    .fil0 {fill:#F05247}
    .fil2 {fill:#309FC6;fill-rule:nonzero}
    .fil1 {fill:white;fill-rule:nonzero}
   ]]>
  </style>
 </defs>
 <g id="Layer_x0020_1">
  <metadata id="CorelCorpID_0Corel-Layer"/>
  <path class="fil0" d="M621.39 441.22l0.63 -91.7 269.97 0 -0.87 91.46 90.63 -0.07 0.06 91.4 100.11 -0.78 -0.48 -90.01 91.5 -0.89 -1.31 -91.1 271.48 0.94 0.25 90.07 101.93 -0.02 0.03 281.54 -101.98 0 -0.32 79.81 -90.05 0.21 0.39 99.87 -90.2 0.54 -0.39 89.16 -101.64 -0.07 2.01 100.16 -80.49 0.22 0.69 100.43 -102.16 0 0.41 -100.94 -79.13 0.41 -0.11 -99.55 -100.22 0 -0.45 -89.96 -89.31 -0.69 0 -100.32 -90.91 -0.06 -0.17 -78.99 -99.11 0.69 0 -282.11 99.22 0.39z"/>
  <path class="fil1" d="M2552.44 653.24c62.11,-24.98 93.17,-75.94 93.17,-151.89 0,-116.92 -77.19,-182.87 -202.3,-182.87l-262.63 0 0 719.49 291.02 0c62.99,0 113.57,-18.99 151.72,-55.96 38.15,-36.97 56.79,-87.94 56.79,-150.89 0,-95.93 -42.59,-154.89 -127.77,-177.87zm-129.54 -234.83c68.31,0 105.58,36.97 105.58,93.93 0,58.96 -37.26,93.93 -105.58,93.93l-125.99 0 0 -187.87 125.99 0zm-125.99 510.64l0 -221.84 145.51 0c74.53,0 118.89,39.97 118.89,110.92 0,70.95 -44.36,110.92 -118.89,110.92l-145.51 0z"/>
  <path id="1" class="fil1" d="M2763.6 816.13c0,72.95 18.63,129.91 56.79,171.88 38.15,41.97 88.72,62.96 149.94,62.96 61.22,0 110.91,-20.99 149.06,-62.96 38.15,-41.97 57.67,-98.93 57.67,-171.88l0 -257.82 -113.57 0 0 257.82c0,75.94 -33.71,122.91 -93.16,122.91 -59.45,0 -93.16,-47.97 -93.16,-122.91l0 -257.82 -113.57 0 0 257.82z"/>
  <path id="2" class="fil1" d="M3269.33 402.42c0,43.97 28.39,78.94 70.09,78.94 41.7,0 70.09,-34.97 70.09,-78.94 0,-44.96 -28.39,-79.94 -70.09,-79.94 -41.7,0 -70.09,34.98 -70.09,79.94zm125.99 635.55l0 -479.66 -114.46 0 0 479.66 114.46 0z"/>
  <path id="3" class="fil1" d="M3627.78 1037.97l0 -719.49 -113.57 0 0 719.49 113.57 0z"/>
  <path id="4" class="fil1" d="M4090.04 627.26c-38.15,-54.96 -90.5,-81.94 -157.93,-81.94 -64.77,0 -118,23.98 -157.93,70.95 -39.93,46.97 -59.45,106.93 -59.45,181.87 0,74.95 19.52,135.91 59.45,182.87 39.93,46.97 93.16,69.95 157.93,69.95 74.53,0 130.43,-32.98 167.69,-97.93l0 84.94 103.81 0 0 -719.49 -113.57 0 0 308.78zm-131.31 319.77c-78.07,0 -131.31,-61.95 -131.31,-148.89 0,-42.97 12.43,-77.94 36.38,-105.93 24.84,-28.98 56.78,-42.97 94.94,-42.97 38.15,0 69.2,13.99 94.05,42.97 24.84,27.98 37.26,62.96 37.26,105.93 0,42.97 -12.42,78.94 -37.26,106.93 -24.85,27.98 -55.9,41.97 -94.05,41.97z"/>
  <path id="5" class="fil1" d="M4284.34 318.48l0 113.92 208.5 0 0 605.57 118 0 0 -605.57 208.5 0 0 -113.92 -535.01 0z"/>
  <path id="6" class="fil1" d="M5054.48 980.01c43.48,-46.96 65.65,-107.92 65.65,-181.87 0,-73.94 -22.18,-134.9 -65.65,-181.87 -43.48,-46.97 -99.37,-70.95 -165.92,-70.95 -66.54,0 -122.44,23.98 -165.91,70.95 -43.48,46.97 -65.66,107.93 -65.66,181.87 0,73.95 22.18,134.91 65.66,181.87 43.47,46.97 99.37,70.95 165.91,70.95 66.55,0 122.44,-23.98 165.92,-70.95zm-255.53 -78.94c-23.07,-26.98 -34.61,-61.96 -34.61,-102.93 0,-40.97 11.54,-75.94 34.61,-102.93 23.07,-27.98 53.24,-41.97 89.61,-41.97 36.38,0 66.55,13.99 88.72,40.97 23.07,26.98 34.6,61.96 34.6,103.93 0,41.97 -11.53,76.94 -34.6,103.93 -22.18,26.98 -52.35,40.97 -88.72,40.97 -36.37,0 -66.54,-13.99 -89.61,-41.97z"/>
  <path id="7" class="fil1" d="M5515.85 671.23l0 107.93 185.44 0c-28.39,98.93 -98.48,152.89 -186.32,152.89 -61.22,0 -110.91,-23.98 -149.06,-72.95 -38.15,-48.96 -57.67,-108.92 -57.67,-180.87 0,-72.95 18.63,-132.91 55.89,-180.87 38.15,-48.96 87.84,-72.94 149.94,-72.94 89.61,0 164.14,52.96 191.65,160.89l109.13 -29.98c-15.97,-76.94 -52.35,-136.9 -108.24,-181.87 -55.9,-44.97 -120.67,-67.95 -195.2,-67.95 -94.93,0 -173.02,34.98 -234.23,105.93 -61.22,69.95 -91.39,158.89 -91.39,266.81 0,107.92 31.06,196.86 92.28,267.81 61.22,69.95 139.3,104.93 233.34,104.93 93.16,0 169.46,-34.98 228.02,-104.93 59.44,-69.95 88.72,-161.89 88.72,-274.81l-312.31 0z"/>
  <path id="8" class="fil1" d="M5905.35 402.42c0,43.97 28.39,78.94 70.09,78.94 41.7,0 70.09,-34.97 70.09,-78.94 0,-44.96 -28.39,-79.94 -70.09,-79.94 -41.7,0 -70.09,34.98 -70.09,79.94zm125.99 635.55l0 -479.66 -114.46 0 0 479.66 114.46 0z"/>
  <path id="9" class="fil1" d="M6347.19 891.07l-129.54 -332.76 -120.67 0 197.86 479.66 98.48 0 197.85 -479.66 -114.46 0 -129.54 332.76z"/>
  <path id="10" class="fil1" d="M6802.35 950.03c-66.54,0 -111.79,-47.97 -122.44,-124.91l315.86 0c4.44,-17.98 6.21,-35.97 6.21,-52.96 0,-67.95 -19.52,-122.91 -58.56,-163.89 -38.15,-41.97 -89.61,-62.95 -153.5,-62.95 -66.54,0 -119.78,22.98 -159.7,69.95 -39.93,46.97 -59.44,106.93 -59.44,181.87 0,74.95 21.3,136.91 63.88,183.87 42.59,46.97 97.59,70.95 165.03,70.95 98.48,0 168.58,-52.96 199.63,-144.89l-84.29 -35.98c-23.96,52.96 -61.22,78.94 -112.68,78.94zm-15.97 -306.78c58.56,0 93.17,32.98 102.93,99.93l-208.5 0c12.42,-66.95 47.91,-99.93 105.58,-99.93z"/>
  <path class="fil2" d="M1.98 649.72c36.99,-0.98 67.13,-10.78 90.4,-29.89 23.27,-18.87 38.95,-44.83 46.55,-77.66 7.59,-33.07 11.76,-89.42 12.25,-169.29 0.24,-79.87 1.47,-132.54 3.68,-158.02 4.41,-40.18 12.25,-72.27 24.01,-96.77 11.51,-24.25 25.97,-43.85 43.12,-58.55 17.15,-14.45 39.2,-25.72 65.9,-33.32 18.13,-4.65 47.53,-7.1 88.69,-7.1l39.93 0 0 113.19 -22.05 0c-49.24,0 -81.83,9.06 -97.99,26.95 -15.93,17.88 -24.01,57.81 -24.01,120.04 0,125.19 -2.69,204.32 -8.08,237.39 -8.57,51.2 -23.52,90.65 -44.34,118.33 -21.07,27.68 -53.9,52.43 -98.98,73.74 53.16,22.05 91.63,55.61 115.63,100.69 23.76,45.08 35.77,119.06 35.77,221.71 0,93.09 0.49,148.46 1.47,166.1 3.92,32.58 13.47,55.12 28.91,68.11 15.68,12.98 46.06,19.35 91.38,19.35l22.3 0 0 113.19 -40.18 0c-46.79,0 -80.84,-3.92 -101.91,-11.52 -30.38,-11.02 -55.86,-28.67 -75.94,-53.41 -20.09,-24.5 -33.07,-55.61 -38.95,-93.34 -6.13,-37.73 -9.31,-99.71 -9.8,-185.7 -0.49,-85.99 -4.66,-145.52 -12.25,-178.35 -7.59,-33.07 -22.78,-59.04 -45.81,-78.15 -23.27,-19.11 -52.92,-29.15 -89.67,-30.13l0 -117.59z"/>
  <path class="fil2" d="M2065.5 649.72l0 117.59c-36.99,0.98 -67.13,11.02 -90.4,30.13 -23.28,19.11 -38.96,45.08 -46.55,77.66 -7.59,32.83 -11.76,88.93 -12.25,168.8 -0.24,79.87 -1.47,132.29 -3.67,157.77 -4.41,40.42 -12.25,72.76 -24.01,97.02 -11.76,24.01 -26.22,43.36 -43.61,58.06 -17.15,14.45 -39.2,25.72 -66.15,33.31 -18.13,5.15 -47.77,7.84 -89.18,7.84l-40.18 0 0 -113.19 22.3 0c49.73,0 82.56,-9.07 98.97,-26.95 16.17,-17.89 24.26,-58.06 24.26,-120.54 0,-119.55 1.96,-195.01 5.88,-227.1 7.59,-52.92 23.03,-95.3 46.06,-127.15 23.28,-31.85 55.86,-56.35 98.24,-74.23 -55.61,-26.21 -94.81,-61 -117.59,-104.12 -22.78,-43.36 -34.05,-116.37 -34.05,-219.26 0,-93.09 -0.49,-148.95 -1.47,-167.08 -3.43,-31.85 -12.74,-54.39 -28.42,-66.88 -15.68,-12.74 -46.3,-19.11 -91.87,-19.11l-22.3 0 0 -113.19 40.18 0c46.8,0 80.85,3.92 101.92,11.52 30.62,10.53 55.85,28.17 75.94,53.16 20.09,24.74 33.07,56.1 38.95,93.83 6.13,37.72 9.31,99.71 9.8,185.94 0.49,85.99 4.65,145.52 12.25,178.1 7.59,32.83 23.28,58.8 46.55,77.91 23.27,19.11 53.41,29.15 90.4,30.13z"/>
 </g>
</svg>
