<?xml version="1.0" encoding="UTF-8"?>
<!DOCTYPE svg PUBLIC "-//W3C//DTD SVG 1.0//EN" "http://www.w3.org/TR/2001/REC-SVG-20010904/DTD/svg10.dtd">
<!-- Creator: CorelDRAW 2017 -->
<svg xmlns="http://www.w3.org/2000/svg" xml:space="preserve" width="2.1in" height="1.4in" version="1.0" style="shape-rendering:geometricPrecision; text-rendering:geometricPrecision; image-rendering:optimizeQuality; fill-rule:evenodd; clip-rule:evenodd"
viewBox="0 0 2100 1400"
 xmlns:xlink="http://www.w3.org/1999/xlink">
 <defs>
  <style type="text/css">
   <![CDATA[
    .fil0 {fill:#F05247}
    .fil1 {fill:#309FC6;fill-rule:nonzero}
   ]]>
  </style>
 </defs>
 <g id="Layer_x0020_1">
  <metadata id="CorelCorpID_0Corel-Layer"/>
  <path class="fil0" d="M647.8 441.46l0.63 -91.7 269.97 0 -0.87 91.45 90.63 -0.07 0.06 91.4 100.11 -0.78 -0.48 -90.01 91.49 -0.89 -1.31 -91.1 271.48 0.93 0.25 90.07 101.93 -0.02 0.03 281.54 -101.98 0 -0.32 79.81 -90.05 0.21 0.39 99.87 -90.2 0.54 -0.39 89.16 -101.64 -0.07 2.01 100.16 -80.48 0.22 0.69 100.43 -102.16 0 0.41 -100.94 -79.13 0.41 -0.11 -99.55 -100.22 0 -0.45 -89.96 -89.31 -0.69 0 -100.32 -90.91 -0.06 -0.17 -78.99 -99.11 0.69 0 -282.1 99.22 0.39z"/>
  <path class="fil1" d="M2091.9 649.96l0 117.59c-36.99,0.98 -67.13,11.02 -90.4,30.13 -23.28,19.11 -38.96,45.08 -46.55,77.66 -7.59,32.83 -11.76,88.93 -12.25,168.8 -0.24,79.87 -1.47,132.29 -3.67,157.77 -4.41,40.42 -12.25,72.76 -24.01,97.02 -11.76,24.01 -26.22,43.36 -43.61,58.06 -17.15,14.45 -39.2,25.72 -66.15,33.31 -18.13,5.15 -47.77,7.84 -89.18,7.84l-40.18 0 0 -113.19 22.3 0c49.73,0 82.56,-9.07 98.97,-26.95 16.17,-17.89 24.26,-58.06 24.26,-120.54 0,-119.55 1.96,-195.01 5.88,-227.1 7.59,-52.92 23.03,-95.3 46.06,-127.15 23.28,-31.85 55.86,-56.35 98.24,-74.23 -55.61,-26.21 -94.81,-61 -117.59,-104.12 -22.78,-43.36 -34.05,-116.37 -34.05,-219.26 0,-93.09 -0.49,-148.95 -1.47,-167.08 -3.43,-31.85 -12.74,-54.39 -28.42,-66.88 -15.68,-12.74 -46.3,-19.11 -91.87,-19.11l-22.3 0 0 -113.19 40.18 0c46.8,0 80.85,3.92 101.92,11.52 30.62,10.53 55.85,28.17 75.94,53.16 20.09,24.74 33.07,56.1 38.95,93.83 6.13,37.72 9.31,99.71 9.8,185.94 0.49,85.99 4.65,145.52 12.25,178.1 7.59,32.83 23.28,58.8 46.55,77.91 23.27,19.11 53.41,29.15 90.4,30.13z"/>
  <path class="fil1" d="M28.39 649.96c36.99,-0.98 67.13,-10.78 90.4,-29.89 23.27,-18.87 38.95,-44.83 46.55,-77.66 7.59,-33.07 11.76,-89.42 12.25,-169.29 0.24,-79.87 1.47,-132.54 3.68,-158.02 4.41,-40.18 12.25,-72.27 24.01,-96.77 11.51,-24.25 25.97,-43.85 43.12,-58.55 17.15,-14.45 39.2,-25.72 65.9,-33.32 18.13,-4.65 47.53,-7.1 88.69,-7.1l39.93 0 0 113.19 -22.05 0c-49.24,0 -81.83,9.06 -97.99,26.95 -15.93,17.88 -24.01,57.81 -24.01,120.04 0,125.19 -2.69,204.32 -8.08,237.39 -8.57,51.2 -23.52,90.65 -44.34,118.33 -21.07,27.68 -53.9,52.43 -98.98,73.74 53.16,22.05 91.63,55.61 115.63,100.69 23.76,45.08 35.77,119.06 35.77,221.71 0,93.09 0.49,148.46 1.47,166.1 3.92,32.58 13.47,55.12 28.91,68.11 15.68,12.98 46.06,19.35 91.38,19.35l22.3 0 0 113.19 -40.18 0c-46.79,0 -80.84,-3.92 -101.91,-11.52 -30.38,-11.02 -55.86,-28.67 -75.94,-53.41 -20.09,-24.5 -33.07,-55.61 -38.95,-93.34 -6.13,-37.73 -9.31,-99.71 -9.8,-185.7 -0.49,-85.99 -4.66,-145.52 -12.25,-178.35 -7.59,-33.07 -22.78,-59.04 -45.81,-78.15 -23.27,-19.11 -52.92,-29.15 -89.67,-30.13l0 -117.59z"/>
 </g>
</svg>
